<?xml version="1.0" encoding="UTF-8"?>
<!DOCTYPE svg PUBLIC "-//W3C//DTD SVG 1.1//EN" "http://www.w3.org/Graphics/SVG/1.1/DTD/svg11.dtd">
<svg xmlns="http://www.w3.org/2000/svg" version="1.1" width="512px" height="512px" style="shape-rendering:geometricPrecision; text-rendering:geometricPrecision; image-rendering:optimizeQuality; fill-rule:evenodd; clip-rule:evenodd" xmlns:xlink="http://www.w3.org/1999/xlink">
<g><path style="opacity:0.996" fill="#95d5a4" d="M 232.5,-0.5 C 247.833,-0.5 263.167,-0.5 278.5,-0.5C 291.819,1.16531 305.152,3.49865 318.5,6.5C 309.913,11.735 302.08,18.0683 295,25.5C 288.577,34.6736 282.91,44.3403 278,54.5C 272.717,61.3077 266.217,66.3077 258.5,69.5C 245.19,74.0697 232.19,73.403 219.5,67.5C 211.591,61.4367 203.258,55.9367 194.5,51C 170.69,43.715 151.19,49.8816 136,69.5C 124.843,87.3913 124.676,105.391 135.5,123.5C 128.079,125.968 121.912,130.301 117,136.5C 112.872,142.561 109.705,149.061 107.5,156C 83.6218,163.901 73.6218,180.401 77.5,205.5C 50.994,223.944 46.1607,246.944 63,274.5C 76.1077,288.988 92.2743,294.321 111.5,290.5C 126.52,320.186 149.854,340.186 181.5,350.5C 181.5,356.5 181.5,362.5 181.5,368.5C 173.895,369.479 166.561,371.479 159.5,374.5C 154.81,368.434 149.143,367.267 142.5,371C 132,381.5 121.5,392 111,402.5C 108.687,407.847 109.187,412.847 112.5,417.5C 105.561,430.317 101.228,443.984 99.5,458.5C 50.5776,421.005 19.0776,372.005 5,311.5C 2.74641,300.424 0.913081,289.424 -0.5,278.5C -0.5,263.167 -0.5,247.833 -0.5,232.5C 10.3875,142.857 54.7208,75.3573 132.5,30C 163.971,13.3053 197.304,3.1386 232.5,-0.5 Z"/></g>
<g><path style="opacity:1" fill="#61a2f8" d="M 339.5,-0.5 C 347.5,-0.5 355.5,-0.5 363.5,-0.5C 364.568,0.434475 365.901,0.767809 367.5,0.5C 348.32,6.35224 333.153,17.6856 322,34.5C 319,40.5 316,46.5 313,52.5C 298.557,70.5946 280.391,76.2613 258.5,69.5C 266.217,66.3077 272.717,61.3077 278,54.5C 282.91,44.3403 288.577,34.6736 295,25.5C 302.08,18.0683 309.913,11.735 318.5,6.5C 325.386,3.53807 332.386,1.20473 339.5,-0.5 Z"/></g>
<g><path style="opacity:0.998" fill="#80b4fa" d="M 367.5,0.5 C 399.021,9.68652 418.021,30.3532 424.5,62.5C 426.575,93.511 414.909,117.678 389.5,135C 336.168,135.5 282.834,135.667 229.5,135.5C 214.663,122.473 208.83,106.14 212,86.5C 213.984,79.8806 216.484,73.5473 219.5,67.5C 232.19,73.403 245.19,74.0697 258.5,69.5C 280.391,76.2613 298.557,70.5946 313,52.5C 316,46.5 319,40.5 322,34.5C 333.153,17.6856 348.32,6.35224 367.5,0.5 Z"/></g>
<g><path style="opacity:1" fill="#61a2f8" d="M 219.5,67.5 C 216.484,73.5473 213.984,79.8806 212,86.5C 208.83,106.14 214.663,122.473 229.5,135.5C 205.661,135.169 181.994,135.502 158.5,136.5C 156.216,136.975 154.216,137.975 152.5,139.5C 151.833,139.167 151.167,138.833 150.5,138.5C 148.022,136.197 145.355,134.031 142.5,132C 140.302,128.977 137.969,126.144 135.5,123.5C 124.676,105.391 124.843,87.3913 136,69.5C 151.19,49.8816 170.69,43.715 194.5,51C 203.258,55.9367 211.591,61.4367 219.5,67.5 Z"/></g>
<g><path style="opacity:1" fill="#f3dc64" d="M 356.5,61.5 C 371.385,60.3549 381.552,66.6883 387,80.5C 389.329,96.6798 382.829,107.513 367.5,113C 344.656,113.518 334.49,102.352 337,79.5C 338.713,75.1266 341.213,71.2933 344.5,68C 348.434,65.5361 352.434,63.3694 356.5,61.5 Z"/></g>
<g><path style="opacity:0.997" fill="#95d5a3" d="M 424.5,62.5 C 475.207,107.911 504.207,164.577 511.5,232.5C 511.5,247.833 511.5,263.167 511.5,278.5C 500.611,368.146 456.278,435.646 378.5,481C 365.93,487.621 352.93,493.121 339.5,497.5C 339.667,483.496 339.5,469.496 339,455.5C 337.265,442.798 333.432,430.798 327.5,419.5C 334.418,415.248 335.918,409.581 332,402.5C 321.5,392 311,381.5 300.5,371C 293.929,366.957 288.429,368.124 284,374.5C 283.503,377.146 283.336,379.813 283.5,382.5C 282.784,380.444 282.117,378.277 281.5,376C 273.813,372.381 265.813,369.881 257.5,368.5C 257.5,364.5 257.5,360.5 257.5,356.5C 265.167,356.5 272.833,356.5 280.5,356.5C 349.072,358.579 393.072,326.913 412.5,261.5C 431.032,255.122 438.866,242.122 436,222.5C 433.272,213.107 427.605,206.107 419,201.5C 418.954,195.881 417.787,190.548 415.5,185.5C 427.673,183.157 431.507,176.157 427,164.5C 425.143,161.8 422.643,160.134 419.5,159.5C 410.682,158.507 401.682,158.173 392.5,158.5C 398.911,154.339 400.744,148.673 398,141.5C 396.457,139.622 394.624,138.122 392.5,137C 337.168,136.5 281.834,136.333 226.5,136.5C 203.833,136.5 181.167,136.5 158.5,136.5C 181.994,135.502 205.661,135.169 229.5,135.5C 282.834,135.667 336.168,135.5 389.5,135C 414.909,117.678 426.575,93.511 424.5,62.5 Z"/></g>
<g><path style="opacity:1" fill="#eebe61" d="M 356.5,73.5 C 371.337,72.4945 377.503,79.1611 375,93.5C 370.841,100.67 364.674,103.17 356.5,101C 344.541,91.835 344.541,82.6683 356.5,73.5 Z"/></g>
<g><path style="opacity:1" fill="#8b5e5e" d="M 135.5,123.5 C 137.969,126.144 140.302,128.977 142.5,132C 145.355,134.031 148.022,136.197 150.5,138.5C 146.601,143.861 144.267,149.861 143.5,156.5C 122.883,160.958 112.217,173.791 111.5,195C 111.786,210.407 118.619,221.907 132,229.5C 131.135,239.736 133.969,248.736 140.5,256.5C 124.753,256.622 114.086,249.289 108.5,234.5C 105.974,233.103 103.308,232.103 100.5,231.5C 97.8695,229.847 95.2028,228.181 92.5,226.5C 85.5007,220.849 80.5007,213.849 77.5,205.5C 73.6218,180.401 83.6218,163.901 107.5,156C 109.705,149.061 112.872,142.561 117,136.5C 121.912,130.301 128.079,125.968 135.5,123.5 Z"/></g>
<g><path style="opacity:1" fill="#edbd61" d="M 158.5,136.5 C 181.167,136.5 203.833,136.5 226.5,136.5C 218.28,144.196 218.613,151.529 227.5,158.5C 203.831,158.667 180.164,158.5 156.5,158C 150.112,153.083 148.778,146.916 152.5,139.5C 154.216,137.975 156.216,136.975 158.5,136.5 Z"/></g>
<g><path style="opacity:1" fill="#f4dc62" d="M 226.5,136.5 C 281.834,136.333 337.168,136.5 392.5,137C 394.624,138.122 396.457,139.622 398,141.5C 400.744,148.673 398.911,154.339 392.5,158.5C 337.5,158.5 282.5,158.5 227.5,158.5C 218.613,151.529 218.28,144.196 226.5,136.5 Z"/></g>
<g><path style="opacity:1" fill="#9b6c6a" d="M 150.5,138.5 C 151.167,138.833 151.833,139.167 152.5,139.5C 148.778,146.916 150.112,153.083 156.5,158C 180.164,158.5 203.831,158.667 227.5,158.5C 282.5,158.5 337.5,158.5 392.5,158.5C 401.682,158.173 410.682,158.507 419.5,159.5C 341.166,159.333 262.833,159.5 184.5,160C 188.722,161.941 192.722,164.108 196.5,166.5C 193.88,168.105 191.047,169.438 188,170.5C 184.32,185.015 175.487,195.015 161.5,200.5C 173.015,213.665 174.515,227.998 166,243.5C 159.457,251.688 150.957,256.021 140.5,256.5C 133.969,248.736 131.135,239.736 132,229.5C 118.619,221.907 111.786,210.407 111.5,195C 112.217,173.791 122.883,160.958 143.5,156.5C 144.267,149.861 146.601,143.861 150.5,138.5 Z"/></g>
<g><path style="opacity:1" fill="#555159" d="M 419.5,159.5 C 422.643,160.134 425.143,161.8 427,164.5C 431.507,176.157 427.673,183.157 415.5,185.5C 411.167,185.5 406.833,185.5 402.5,185.5C 395.833,185.5 389.167,185.5 382.5,185.5C 358.5,185.5 334.5,185.5 310.5,185.5C 292.435,185.954 274.435,185.287 256.5,183.5C 239.07,180.815 222.07,176.481 205.5,170.5C 202.744,168.796 199.744,167.463 196.5,166.5C 192.722,164.108 188.722,161.941 184.5,160C 262.833,159.5 341.166,159.333 419.5,159.5 Z"/></g>
<g><path style="opacity:1" fill="#eab99a" d="M 196.5,166.5 C 199.744,167.463 202.744,168.796 205.5,170.5C 184.827,180.162 175.16,196.495 176.5,219.5C 171.672,272.316 191.339,312.816 235.5,341C 249.782,348.704 264.782,353.87 280.5,356.5C 272.833,356.5 265.167,356.5 257.5,356.5C 257.5,360.5 257.5,364.5 257.5,368.5C 257.5,369.833 257.5,371.167 257.5,372.5C 257.5,374.5 257.5,376.5 257.5,378.5C 240.167,378.5 222.833,378.5 205.5,378.5C 204.693,390.584 208.693,400.751 217.5,409C 221.743,411.783 225.743,414.616 229.5,417.5C 226.311,417.858 223.311,418.525 220.5,419.5C 219.833,419.5 219.167,419.5 218.5,419.5C 192.473,414.79 180.14,399.123 181.5,372.5C 181.5,371.167 181.5,369.833 181.5,368.5C 181.5,362.5 181.5,356.5 181.5,350.5C 149.854,340.186 126.52,320.186 111.5,290.5C 92.2743,294.321 76.1077,288.988 63,274.5C 46.1607,246.944 50.994,223.944 77.5,205.5C 80.5007,213.849 85.5007,220.849 92.5,226.5C 80.9053,231.353 76.4053,240.019 79,252.5C 80.1532,255.47 81.8199,258.137 84,260.5C 86.3633,252.958 91.1966,250.625 98.5,253.5C 99.1667,246.011 99.8334,238.678 100.5,231.5C 103.308,232.103 105.974,233.103 108.5,234.5C 114.086,249.289 124.753,256.622 140.5,256.5C 150.957,256.021 159.457,251.688 166,243.5C 174.515,227.998 173.015,213.665 161.5,200.5C 175.487,195.015 184.32,185.015 188,170.5C 191.047,169.438 193.88,168.105 196.5,166.5 Z"/></g>
<g><path style="opacity:1" fill="#f9f5e9" d="M 205.5,170.5 C 222.07,176.481 239.07,180.815 256.5,183.5C 267.299,198.541 269.465,214.874 263,232.5C 261.729,235.433 260.062,238.099 258,240.5C 253.159,234.669 247.326,230.169 240.5,227C 239.748,226.329 239.414,225.496 239.5,224.5C 245.957,207.122 240.123,196.455 222,192.5C 203.024,196.449 197.191,207.449 204.5,225.5C 201.402,227.892 198.069,230.058 194.5,232C 191.651,235.016 188.651,237.85 185.5,240.5C 180.729,234.166 177.729,227.166 176.5,219.5C 175.16,196.495 184.827,180.162 205.5,170.5 Z"/></g>
<g><path style="opacity:1" fill="#efceb9" d="M 256.5,183.5 C 274.435,185.287 292.435,185.954 310.5,185.5C 301.937,196.11 299.27,207.776 302.5,220.5C 294.686,227.481 287.353,234.981 280.5,243C 294.115,260.106 309.615,261.939 327,248.5C 333.052,241.32 333.885,233.653 329.5,225.5C 338.375,223.695 347.375,223.029 356.5,223.5C 366.672,226.513 375.172,232.18 382,240.5C 388.567,232.014 391.733,222.347 391.5,211.5C 390.859,201.907 387.859,193.24 382.5,185.5C 389.167,185.5 395.833,185.5 402.5,185.5C 413.054,209.808 416.388,235.141 412.5,261.5C 393.072,326.913 349.072,358.579 280.5,356.5C 264.782,353.87 249.782,348.704 235.5,341C 191.339,312.816 171.672,272.316 176.5,219.5C 177.729,227.166 180.729,234.166 185.5,240.5C 188.651,237.85 191.651,235.016 194.5,232C 198.069,230.058 201.402,227.892 204.5,225.5C 215.174,222.899 225.841,222.899 236.5,225.5C 237.584,225.315 238.584,224.982 239.5,224.5C 239.414,225.496 239.748,226.329 240.5,227C 247.326,230.169 253.159,234.669 258,240.5C 260.062,238.099 261.729,235.433 263,232.5C 269.465,214.874 267.299,198.541 256.5,183.5 Z"/></g>
<g><path style="opacity:1" fill="#f9f5e9" d="M 310.5,185.5 C 334.5,185.5 358.5,185.5 382.5,185.5C 387.859,193.24 390.859,201.907 391.5,211.5C 391.733,222.347 388.567,232.014 382,240.5C 375.172,232.18 366.672,226.513 356.5,223.5C 361.997,208.662 357.331,198.495 342.5,193C 325.789,192.544 317.455,200.711 317.5,217.5C 312.035,216.773 307.035,217.773 302.5,220.5C 299.27,207.776 301.937,196.11 310.5,185.5 Z"/></g>
<g><path style="opacity:1" fill="#9d6c6c" d="M 402.5,185.5 C 406.833,185.5 411.167,185.5 415.5,185.5C 417.787,190.548 418.954,195.881 419,201.5C 427.605,206.107 433.272,213.107 436,222.5C 438.866,242.122 431.032,255.122 412.5,261.5C 416.388,235.141 413.054,209.808 402.5,185.5 Z"/></g>
<g><path style="opacity:1" fill="#565259" d="M 239.5,224.5 C 238.584,224.982 237.584,225.315 236.5,225.5C 225.841,222.899 215.174,222.899 204.5,225.5C 197.191,207.449 203.024,196.449 222,192.5C 240.123,196.455 245.957,207.122 239.5,224.5 Z"/></g>
<g><path style="opacity:1" fill="#565259" d="M 356.5,223.5 C 347.375,223.029 338.375,223.695 329.5,225.5C 326.545,221.35 322.545,218.683 317.5,217.5C 317.455,200.711 325.789,192.544 342.5,193C 357.331,198.495 361.997,208.662 356.5,223.5 Z"/></g>
<g><path style="opacity:1" fill="#eab99a" d="M 317.5,217.5 C 322.545,218.683 326.545,221.35 329.5,225.5C 333.885,233.653 333.052,241.32 327,248.5C 309.615,261.939 294.115,260.106 280.5,243C 287.353,234.981 294.686,227.481 302.5,220.5C 307.035,217.773 312.035,216.773 317.5,217.5 Z"/></g>
<g><path style="opacity:1" fill="#dc9e80" d="M 92.5,226.5 C 95.2028,228.181 97.8695,229.847 100.5,231.5C 99.8334,238.678 99.1667,246.011 98.5,253.5C 91.1966,250.625 86.3633,252.958 84,260.5C 81.8199,258.137 80.1532,255.47 79,252.5C 76.4053,240.019 80.9053,231.353 92.5,226.5 Z"/></g>
<g><path style="opacity:1" fill="#fcf8ec" d="M 246.5,261.5 C 276.5,261.5 306.5,261.5 336.5,261.5C 335.127,284.379 323.46,299.212 301.5,306C 277.999,309.168 260.832,300.334 250,279.5C 247.997,273.654 246.831,267.654 246.5,261.5 Z"/></g>
<g><path style="opacity:1" fill="#62a2f8" d="M 181.5,368.5 C 181.5,369.833 181.5,371.167 181.5,372.5C 172.535,380.964 163.702,389.631 155,398.5C 142.997,414.323 144.164,429.156 158.5,443C 161.767,445.13 165.1,446.963 168.5,448.5C 167.634,464.483 167.3,480.483 167.5,496.5C 142.589,487.53 119.923,474.864 99.5,458.5C 101.228,443.984 105.561,430.317 112.5,417.5C 116.44,420.821 120.774,421.321 125.5,419C 136.667,407.833 147.833,396.667 159,385.5C 160.718,381.877 160.884,378.211 159.5,374.5C 166.561,371.479 173.895,369.479 181.5,368.5 Z"/></g>
<g><path style="opacity:0.996" fill="#80b4fa" d="M 257.5,368.5 C 265.813,369.881 273.813,372.381 281.5,376C 282.117,378.277 282.784,380.444 283.5,382.5C 283.709,383.922 284.209,385.255 285,386.5C 295.5,397 306,407.5 316.5,418C 319.846,420.668 323.513,421.168 327.5,419.5C 333.432,430.798 337.265,442.798 339,455.5C 339.5,469.496 339.667,483.496 339.5,497.5C 319.737,504.719 299.403,509.386 278.5,511.5C 266.833,511.5 255.167,511.5 243.5,511.5C 243.83,494.991 243.496,478.658 242.5,462.5C 240.844,454.837 236.511,449.171 229.5,445.5C 232.829,443.494 235.829,441.161 238.5,438.5C 251.344,450.097 265.344,451.597 280.5,443C 292.614,431.174 294.78,417.674 287,402.5C 277.661,391.995 267.828,381.995 257.5,372.5C 257.5,371.167 257.5,369.833 257.5,368.5 Z"/></g>
<g><path style="opacity:1" fill="#f3dc63" d="M 159.5,374.5 C 160.884,378.211 160.718,381.877 159,385.5C 147.833,396.667 136.667,407.833 125.5,419C 120.774,421.321 116.44,420.821 112.5,417.5C 109.187,412.847 108.687,407.847 111,402.5C 121.5,392 132,381.5 142.5,371C 149.143,367.267 154.81,368.434 159.5,374.5 Z"/></g>
<g><path style="opacity:1" fill="#f4dc63" d="M 327.5,419.5 C 323.513,421.168 319.846,420.668 316.5,418C 306,407.5 295.5,397 285,386.5C 284.209,385.255 283.709,383.922 283.5,382.5C 283.336,379.813 283.503,377.146 284,374.5C 288.429,368.124 293.929,366.957 300.5,371C 311,381.5 321.5,392 332,402.5C 335.918,409.581 334.418,415.248 327.5,419.5 Z"/></g>
<g><path style="opacity:1" fill="#f8f5ea" d="M 257.5,372.5 C 267.828,381.995 277.661,391.995 287,402.5C 294.78,417.674 292.614,431.174 280.5,443C 265.344,451.597 251.344,450.097 238.5,438.5C 232.5,432.167 226.5,425.833 220.5,419.5C 223.311,418.525 226.311,417.858 229.5,417.5C 247.889,411.071 257.222,398.071 257.5,378.5C 257.5,376.5 257.5,374.5 257.5,372.5 Z"/></g>
<g><path style="opacity:1" fill="#f8f5ea" d="M 181.5,372.5 C 180.14,399.123 192.473,414.79 218.5,419.5C 212.5,425.833 206.5,432.167 200.5,438.5C 191.585,447.068 180.918,450.401 168.5,448.5C 165.1,446.963 161.767,445.13 158.5,443C 144.164,429.156 142.997,414.323 155,398.5C 163.702,389.631 172.535,380.964 181.5,372.5 Z"/></g>
<g><path style="opacity:1" fill="#f0cfba" d="M 257.5,378.5 C 257.222,398.071 247.889,411.071 229.5,417.5C 225.743,414.616 221.743,411.783 217.5,409C 208.693,400.751 204.693,390.584 205.5,378.5C 222.833,378.5 240.167,378.5 257.5,378.5 Z"/></g>
<g><path style="opacity:0.996" fill="#545058" d="M 218.5,419.5 C 219.167,419.5 219.833,419.5 220.5,419.5C 226.5,425.833 232.5,432.167 238.5,438.5C 235.829,441.161 232.829,443.494 229.5,445.5C 236.511,449.171 240.844,454.837 242.5,462.5C 242.5,478.5 242.5,494.5 242.5,510.5C 241.209,510.263 240.209,510.596 239.5,511.5C 237.5,511.5 235.5,511.5 233.5,511.5C 221.556,509.954 209.556,507.954 197.5,505.5C 196.518,491.245 196.184,476.912 196.5,462.5C 198.142,455.188 202.142,449.522 208.5,445.5C 205.386,443.62 202.72,441.287 200.5,438.5C 206.5,432.167 212.5,425.833 218.5,419.5 Z"/></g>
<g><path style="opacity:0.994" fill="#80b4fa" d="M 200.5,438.5 C 202.72,441.287 205.386,443.62 208.5,445.5C 202.142,449.522 198.142,455.188 196.5,462.5C 195.504,476.323 195.171,490.323 195.5,504.5C 185.888,502.764 176.555,500.098 167.5,496.5C 167.3,480.483 167.634,464.483 168.5,448.5C 180.918,450.401 191.585,447.068 200.5,438.5 Z"/></g>
<g><path style="opacity:1" fill="#627290" d="M 196.5,462.5 C 196.184,476.912 196.518,491.245 197.5,505.5C 196.508,505.672 195.842,505.338 195.5,504.5C 195.171,490.323 195.504,476.323 196.5,462.5 Z"/></g>
<g><path style="opacity:1" fill="#66799b" d="M 242.5,462.5 C 243.496,478.658 243.83,494.991 243.5,511.5C 242.167,511.5 240.833,511.5 239.5,511.5C 240.209,510.596 241.209,510.263 242.5,510.5C 242.5,494.5 242.5,478.5 242.5,462.5 Z"/></g>
</svg>
